<?xml version="1.0" encoding="UTF-8"?>
<svg width="61px" height="60px" viewBox="0 0 61 60" version="1.1" xmlns="http://www.w3.org/2000/svg" xmlns:xlink="http://www.w3.org/1999/xlink">
    <!-- Generator: Sketch 55 (78076) - https://sketchapp.com -->
    <title>calendar</title>
    <desc>Created with Sketch.</desc>
    <defs>
        <ellipse id="path-1" cx="29.8404138" cy="29.8061538" rx="29.8404138" ry="29.8061538"></ellipse>
    </defs>
    <g id="Page-1" stroke="none" stroke-width="1" fill="none" fill-rule="evenodd">
        <g id="Email-1" transform="translate(-538.000000, -734.000000)">
            <g id="Card" transform="translate(200.000000, 30.000000)">
                <g id="Benefits" transform="translate(30.000000, 650.000000)">
                    <g id="Group" transform="translate(0.000000, 54.000000)">
                        <g id="3" transform="translate(277.000000, 0.000000)">
                            <g id="Illustration/130/calendar" transform="translate(29.000000, 0.000000)">
                                <g id="Group">
                                    <g transform="translate(2.697029, -0.000000)">
                                        <mask id="mask-2" fill="white">
                                            <use xlink:href="#path-1"></use>
                                        </mask>
                                        <use id="Oval" fill="#1D4354" xlink:href="#path-1"></use>
                                        <rect id="Rectangle" fill="#33637A" mask="url(#mask-2)" x="3.23448276" y="46.1538462" width="54.9862069" height="13.8461538"></rect>
                                        <path d="M29.8062175,47.2186595 L10.7597348,47.2186595 C10.4755624,47.2186595 10.24499,46.990198 10.2422175,46.7063519 L10.2422175,19.5909672 L49.3702175,19.5909672 L49.3702175,40.360198 L49.3702175,46.7063519 C49.3674451,46.990198 49.1368727,47.2186595 48.8527003,47.2186595 L29.8062175,47.2186595 Z" id="Combined-Shape" fill="#FFFFFF" mask="url(#mask-2)"></path>
                                        <polygon id="Fill-15" fill="#6FDA44" mask="url(#mask-2)" points="14.2484479 32.4910595 19.89031 32.4910595 19.89031 26.8556749 14.2484479 26.8556749"></polygon>
                                        <polygon id="Fill-17" fill="#E0E0E0" mask="url(#mask-2)" points="22.4547927 32.4910595 28.0966548 32.4910595 28.0966548 26.8556749 22.4547927 26.8556749"></polygon>
                                        <polygon id="Fill-18" fill="#E0E0E0" mask="url(#mask-2)" points="30.6611375 32.4910595 36.3029996 32.4910595 36.3029996 26.8556749 30.6611375 26.8556749"></polygon>
                                        <polygon id="Fill-19" fill="#E0E0E0" mask="url(#mask-2)" points="38.8674824 32.4910595 44.5093444 32.4910595 44.5093444 26.8556749 38.8674824 26.8556749"></polygon>
                                        <polygon id="Fill-20" fill="#E0E0E0" mask="url(#mask-2)" points="14.2484479 40.7618288 19.89031 40.7618288 19.89031 35.1264442 14.2484479 35.1264442"></polygon>
                                        <polygon id="Fill-21" fill="#E0E0E0" mask="url(#mask-2)" points="22.4547927 40.7618288 28.0966548 40.7618288 28.0966548 35.1264442 22.4547927 35.1264442"></polygon>
                                        <polygon id="Fill-22" fill="#E0E0E0" mask="url(#mask-2)" points="30.6611375 40.7618288 36.3029996 40.7618288 36.3029996 35.1264442 30.6611375 35.1264442"></polygon>
                                        <polygon id="Fill-23" fill="#E0E0E0" mask="url(#mask-2)" points="38.8674824 40.7618288 44.5093444 40.7618288 44.5093444 35.1264442 38.8674824 35.1264442"></polygon>
                                        <path d="M10.7599196,14.352598 L48.8482644,14.352598 C49.1338231,14.352598 49.3657817,14.5838288 49.3657817,14.8695211 L49.3657817,20.9756749 L10.2424024,20.9756749 L10.2424024,14.8649057 C10.2451748,14.5810595 10.4757472,14.352598 10.7599196,14.352598" id="Fill-25" fill="#6FDA44" mask="url(#mask-2)"></path>
                                        <path d="M20.3293679,12.6309672 L21.8726782,12.6309672 C22.0154575,12.6309672 22.1309748,12.7468134 22.1309748,12.8894288 L22.1309748,16.8171211 C22.1309748,16.9597365 22.0154575,17.0755826 21.8726782,17.0755826 L20.3293679,17.0755826 C20.1861265,17.0755826 20.0701472,16.9597365 20.0701472,16.8171211 L20.0701472,12.8894288 C20.0701472,12.7468134 20.1861265,12.6309672 20.3293679,12.6309672" id="Fill-26" fill="#FFFFFF" mask="url(#mask-2)"></path>
                                        <path d="M37.8464486,12.6309672 L39.3897589,12.6309672 C39.5325382,12.6309672 39.6480555,12.7468134 39.6480555,12.8894288 L39.6480555,16.8171211 C39.6480555,16.9597365 39.5325382,17.0755826 39.3897589,17.0755826 L37.8464486,17.0755826 C37.7032072,17.0755826 37.5872279,16.9597365 37.5872279,16.8171211 L37.5872279,12.8894288 C37.5872279,12.7468134 37.7032072,12.6309672 37.8464486,12.6309672" id="Fill-27" fill="#FFFFFF" mask="url(#mask-2)"></path>
                                    </g>
                                </g>
                            </g>
                        </g>
                    </g>
                </g>
            </g>
        </g>
    </g>
</svg>