<?xml version="1.0" encoding="UTF-8"?>
<svg width="129px" height="129px" viewBox="0 0 129 129" version="1.1" xmlns="http://www.w3.org/2000/svg" xmlns:xlink="http://www.w3.org/1999/xlink">
    <!-- Generator: Sketch 55 (78076) - https://sketchapp.com -->
    <title>customer-service</title>
    <desc>Created with Sketch.</desc>
    <defs>
        <polygon id="path-1" points="0 0.016 128.9995 0.016 128.9995 128.9156 0 128.9156"></polygon>
    </defs>
    <g id="Page-1" stroke="none" stroke-width="1" fill="none" fill-rule="evenodd">
        <g id="Email-1---Social-proof-Copy" transform="translate(-231.000000, -1310.000000)">
            <g id="Card" transform="translate(200.000000, 1279.000000)">
                <g id="Illustration/130/customer-service" transform="translate(31.000000, 30.000000)">
                    <g id="Group-24">
                        <g transform="translate(0.000000, 0.000000)">
                            <g id="Group-3" transform="translate(0.000000, 0.984000)">
                                <mask id="mask-2" fill="white">
                                    <use xlink:href="#path-1"></use>
                                </mask>
                                <g id="Clip-2"></g>
                                <path d="M128.9995,64.5156 C128.9995,100.1386 100.1225,128.9156 64.4995,128.9156 C28.8775,128.9156 -0.0005,100.1386 -0.0005,64.5156 C-0.0005,28.8936 28.8775,0.0156 64.4995,0.0156 C100.1225,0.0156 128.9995,28.8936 128.9995,64.5156" id="Fill-1" fill="#1D4354" mask="url(#mask-2)"></path>
                            </g>
                            <path d="M75.9917,101.3199 C66.0427,98.8449 59.5357,89.6409 52.6577,81.5389 C43.8287,71.1379 35.8797,56.1399 37.8337,42.0649 C38.0447,40.5429 38.3817,39.0749 38.8307,37.6679 C42.6217,25.7939 54.4557,18.2329 67.0527,18.5559 C67.0527,18.5559 82.2457,19.5609 90.7027,35.1399 C99.1597,50.7189 95.6127,65.4549 103.8337,78.0419 C112.6187,91.4929 103.3307,108.1219 75.9917,101.3199" id="Fill-4" fill="#6FDA44"></path>
                            <path d="M89.0708,57.9015 L86.1938,57.9015 L86.1938,44.7145 C86.1938,31.5375 75.4728,20.8175 62.2978,20.8175 C49.1208,20.8175 38.3998,31.5375 38.3998,44.7145 L38.3998,57.9015 L35.5228,57.9015 L35.5228,44.7145 C35.5228,29.9515 47.5338,17.9405 62.2978,17.9405 C77.0598,17.9405 89.0708,29.9515 89.0708,44.7145 L89.0708,57.9015 Z" id="Fill-6" fill="#F2F2F2"></path>
                            <path d="M43.1158,96.1883 C36.0948,97.9253 29.2168,99.7293 23.7998,101.1793 L104.4028,101.5873 L82.7248,96.3913 C79.5518,95.6233 77.0358,92.7493 76.4728,89.5323 L74.8988,80.5163 C82.6568,75.6213 87.9288,66.0293 87.9288,54.9963 C87.9288,52.3563 87.6218,49.8023 87.0558,47.3723 C87.9798,54.6103 87.0978,60.6893 87.0978,60.6893 C82.3238,58.6093 77.8598,55.3643 74.4408,50.4103 C60.7608,30.5883 53.7808,29.7503 48.0218,32.9333 C42.2618,36.1153 39.5528,48.7373 39.5528,48.7373 C39.5528,48.7373 39.5488,47.3393 39.8348,45.2113 C38.8968,48.2683 38.3838,51.5613 38.3838,54.9963 C38.3838,65.7573 43.4008,75.1423 50.8458,80.1403 L48.2368,90.5963 C47.8148,93.3233 45.7938,95.5253 43.1158,96.1883" id="Fill-8" fill="#B2B2B2"></path>
                            <path d="M36.1949,67.0365 L33.8339,67.0365 C30.2539,67.0365 28.3759,62.1515 28.3759,56.0025 C28.3759,49.8525 30.4469,44.8685 33.8339,44.8685 L36.1949,44.8685 L36.1949,67.0365 Z" id="Fill-10" fill="#F2F2F2"></path>
                            <path d="M35.2515,44.868 L39.5775,44.868 C39.8325,44.868 40.0385,45.075 40.0385,45.329 L40.0385,66.674 C40.0385,66.929 39.8325,67.136 39.5775,67.136 L35.2515,67.136 L35.2515,44.868 Z" id="Fill-12" fill="#1D4354"></path>
                            <path d="M89.0718,60.9925 C88.4348,60.9925 87.9168,61.5105 87.9168,62.1475 L87.9168,73.3265 C87.9168,75.6585 84.6878,75.9385 84.3508,75.9615 L67.2768,75.9615 C66.6398,75.9615 66.1228,76.4795 66.1228,77.1165 C66.1228,77.7525 66.6398,78.2705 67.2768,78.2705 L84.4118,78.2695 C86.4228,78.1635 90.2258,76.9945 90.2258,73.3265 L90.2258,62.1475 C90.2258,61.5105 89.7078,60.9925 89.0718,60.9925" id="Fill-14" fill="#E0E0E0"></path>
                            <path d="M68.898,79.1031 L61.159,79.1031 C60.872,79.1031 60.637,78.8691 60.637,78.5821 L60.637,75.2331 C60.637,74.9461 60.872,74.7121 61.159,74.7121 L68.898,74.7121 C69.186,74.7121 69.419,74.9461 69.419,75.2331 L69.419,78.5821 C69.419,78.8691 69.186,79.1031 68.898,79.1031" id="Fill-16" fill="#F2F2F2"></path>
                            <path d="M89.7583,44.9671 L92.1193,44.9671 C95.7003,44.9671 97.5753,49.9521 97.5753,56.1021 C97.5753,62.2511 95.5093,67.2351 92.1193,67.2351 L89.7583,67.2351 L89.7583,44.9671 Z" id="Fill-18" fill="#F2F2F2"></path>
                            <path d="M90.7027,67.2347 L86.3767,67.2347 C86.1217,67.2347 85.9157,67.0277 85.9157,66.7737 L85.9157,45.4287 C85.9157,45.1737 86.1217,44.9667 86.3767,44.9667 L90.7027,44.9667 L90.7027,67.2347 Z" id="Fill-20" fill="#1D4354"></path>
                            <path d="M63.7183,100.2318 C70.4913,100.3778 77.2083,98.7998 83.1703,96.4978 L116.0183,104.3148 C104.4033,120.2968 86.0503,129.9838 64.1603,129.9838 C43.0533,129.9838 24.5463,119.7968 12.8173,104.0948 C12.8173,104.0948 27.5823,99.9848 43.0353,96.1618 L43.8893,95.9418 C43.8893,95.9418 49.7233,99.9298 63.7183,100.2318" id="Fill-22" fill="#F2F2F2"></path>
                        </g>
                    </g>
                </g>
            </g>
        </g>
    </g>
</svg>