<?xml version="1.0" encoding="UTF-8"?>
<svg width="61px" height="60px" viewBox="0 0 61 60" version="1.1" xmlns="http://www.w3.org/2000/svg" xmlns:xlink="http://www.w3.org/1999/xlink">
    <!-- Generator: Sketch 55 (78076) - https://sketchapp.com -->
    <title>payment</title>
    <desc>Created with Sketch.</desc>
    <defs>
        <polygon id="path-1" points="0 0 59.6066655 0 59.6066655 59.5384615 0 59.5384615"></polygon>
        <polygon id="path-3" points="0 59.5384615 59.6068966 59.5384615 59.6068966 0 0 0"></polygon>
    </defs>
    <g id="Page-1" stroke="none" stroke-width="1" fill="none" fill-rule="evenodd">
        <g id="Email-1" transform="translate(-677.000000, -734.000000)">
            <g id="Card" transform="translate(200.000000, 30.000000)">
                <g id="Benefits" transform="translate(30.000000, 650.000000)">
                    <g id="Group" transform="translate(0.000000, 54.000000)">
                        <g id="4" transform="translate(415.000000, 0.000000)">
                            <g id="Illustration/130/secure-payment" transform="translate(29.000000, 0.000000)">
                                <g id="Group-20">
                                    <g transform="translate(3.696552, 0.230769)">
                                        <g id="Group-3">
                                            <mask id="mask-2" fill="white">
                                                <use xlink:href="#path-1"></use>
                                            </mask>
                                            <g id="Clip-2"></g>
                                            <path d="M59.6066655,29.7692308 C59.6066655,46.2101538 46.2635,59.5384615 29.8032172,59.5384615 C13.3433966,59.5384615 -0.000231034483,46.2101538 -0.000231034483,29.7692308 C-0.000231034483,13.3283077 13.3433966,0 29.8032172,0 C46.2635,0 59.6066655,13.3283077 59.6066655,29.7692308" id="Fill-1" fill="#1D4354" mask="url(#mask-2)"></path>
                                        </g>
                                        <path d="M29.8912414,59.5302923 C41.5792759,59.5007538 51.6727103,52.7512154 56.5309034,42.9555231 L3.16702069,43.0907538 C8.07511724,52.8615231 18.2027448,59.5598308 29.8912414,59.5302923" id="Fill-4" fill="#33637A"></path>
                                        <path d="M49.9370869,26.4003692 L27.8987076,32.3569846 C27.6542731,32.4229846 27.4024455,32.2785231 27.3363697,32.0348308 L23.4776317,17.7922154 C23.4120179,17.5480615 23.5561834,17.2965231 23.80108,17.2305231 L45.8389972,11.2739077 C46.0834317,11.2079077 46.3352593,11.3523692 46.4017972,11.5960615 L50.259611,25.8386769 C50.326149,26.0828308 50.1815214,26.3343692 49.9370869,26.4003692" id="Fill-6" fill="#33637A"></path>
                                        <path d="M51.7591634,44.1933692 L28.9283359,44.1933692 C28.67466,44.1933692 28.4699634,43.9884462 28.4699634,43.7355231 L28.4699634,28.9806 C28.4699634,28.7276769 28.67466,28.5227538 28.9283359,28.5227538 L51.7591634,28.5227538 C52.0123772,28.5227538 52.2175359,28.7276769 52.2175359,28.9806 L52.2175359,43.7355231 C52.2175359,43.9884462 52.0123772,44.1933692 51.7591634,44.1933692" id="Fill-8" fill="#F2F2F2"></path>
                                        <mask id="mask-4" fill="white">
                                            <use xlink:href="#path-3"></use>
                                        </mask>
                                        <g id="Clip-11"></g>
                                        <polygon id="Fill-10" fill="#1D4354" mask="url(#mask-4)" points="28.4694552 34.8018462 52.2174897 34.8018462 52.2174897 31.4206154 28.4694552 31.4206154"></polygon>
                                        <polygon id="Fill-12" fill="#E0E0E0" mask="url(#mask-4)" points="30.6652069 40.9809231 44.9144897 40.9809231 44.9144897 36.8649231 30.6652069 36.8649231"></polygon>
                                        <path d="M43.7623207,38.4895846 L41.6677621,38.4895846 C41.539769,38.4895846 41.4367276,38.3862 41.4367276,38.2588154 C41.4367276,38.1314308 41.539769,38.0280462 41.6677621,38.0280462 L43.7623207,38.0280462 C43.8898517,38.0280462 43.9933552,38.1314308 43.9933552,38.2588154 C43.9933552,38.3862 43.8898517,38.4895846 43.7623207,38.4895846" id="Fill-13" fill="#B2B2B2" mask="url(#mask-4)"></path>
                                        <path d="M31.4840855,30.9730615 L28.519451,30.9730615 L28.519451,19.9792154 C28.519451,16.7784462 25.9115338,14.1739846 22.7070855,14.1739846 C19.5021752,14.1739846 16.89472,16.7784462 16.89472,19.9792154 L16.89472,30.9730615 L13.9300855,30.9730615 L13.9300855,19.9792154 C13.9300855,15.1455231 17.8673752,11.2127538 22.7070855,11.2127538 C27.5467959,11.2127538 31.4840855,15.1455231 31.4840855,19.9792154 L31.4840855,30.9730615 Z" id="Fill-14" fill="#FFFFFF" mask="url(#mask-4)"></path>
                                        <path d="M34.4505683,46.5155077 L10.9636028,46.5155077 C10.710389,46.5155077 10.5052303,46.3105846 10.5052303,46.0576615 L10.5052303,24.8005846 C10.5052303,24.5472 10.710389,24.3422769 10.9636028,24.3422769 L34.4505683,24.3422769 C34.7037821,24.3422769 34.9089407,24.5472 34.9089407,24.8005846 L34.9089407,46.0576615 C34.9089407,46.3105846 34.7037821,46.5155077 34.4505683,46.5155077" id="Fill-15" fill="#6FDA44" mask="url(#mask-4)"></path>
                                        <path d="M25.1072103,33.2028 C25.1072103,31.7097231 23.7408724,30.5355692 22.1892448,30.8595692 C21.2738862,31.0506462 20.5378103,31.7955692 20.3562172,32.7117231 C20.1085483,33.9555692 20.8261414,35.0720308 21.8939828,35.4560308 C21.9055345,35.4606462 21.9115414,35.4726462 21.9073828,35.4841846 L20.4139759,39.7478769 C20.3613,39.8964923 20.4721966,40.0524923 20.6302241,40.0524923 L24.7842241,40.0524923 C24.9422517,40.0524923 25.0526862,39.8964923 25.0004724,39.7478769 L23.4996724,35.4634154 C24.4349,35.1366462 25.1072103,34.2491077 25.1072103,33.2028" id="Fill-16" fill="#34BA08" mask="url(#mask-4)"></path>
                                        <path d="M43.8656393,15.5169231 L42.2497841,15.9572308 L42.55706,17.082 C42.590329,17.2038462 42.7164738,17.2763077 42.83846,17.2426154 L44.2329841,16.8627692 L43.8656393,15.5169231 Z" id="Fill-17" fill="#295164" mask="url(#mask-4)"></path>
                                        <path d="M43.7609807,15.1340308 L43.3460428,13.6132615 L41.9510566,13.9931077 C41.8290703,14.0268 41.7569876,14.1528 41.7902566,14.2746462 L42.1451255,15.5743385 L43.7609807,15.1340308 Z" id="Fill-18" fill="#295164" mask="url(#mask-4)"></path>
                                        <path d="M45.8100255,16.1957077 L45.0434531,13.3881692 C45.0101841,13.2663231 44.8840393,13.1943231 44.761591,13.2275538 L43.7288669,13.5090923 L44.6165014,16.7583231 L45.6492255,16.4767846 C45.7712117,16.4435538 45.8432945,16.3180154 45.8100255,16.1957077" id="Fill-19" fill="#295164" mask="url(#mask-4)"></path>
                                    </g>
                                </g>
                            </g>
                        </g>
                    </g>
                </g>
            </g>
        </g>
    </g>
</svg>