<?xml version="1.0" encoding="UTF-8"?>
<svg width="61px" height="60px" viewBox="0 0 61 60" version="1.1" xmlns="http://www.w3.org/2000/svg" xmlns:xlink="http://www.w3.org/1999/xlink">
    <!-- Generator: Sketch 55 (78076) - https://sketchapp.com -->
    <title>skills</title>
    <desc>Created with Sketch.</desc>
    <defs>
        <polygon id="path-1" points="0.000184827586 0 59.6068966 0 59.6068966 59.5384615 0.000184827586 59.5384615"></polygon>
    </defs>
    <g id="Page-1" stroke="none" stroke-width="1" fill="none" fill-rule="evenodd">
        <g id="Email-1" transform="translate(-262.000000, -734.000000)">
            <g id="Card" transform="translate(200.000000, 30.000000)">
                <g id="Benefits" transform="translate(30.000000, 650.000000)">
                    <g id="Group" transform="translate(0.000000, 54.000000)">
                        <g id="1">
                            <g id="Illustration/130/tool" transform="translate(29.000000, 0.000000)">
                                <g id="Group-14">
                                    <g transform="translate(3.696552, 0.230769)">
                                        <g id="Group-3">
                                            <mask id="mask-2" fill="white">
                                                <use xlink:href="#path-1"></use>
                                            </mask>
                                            <g id="Clip-2"></g>
                                            <path d="M59.6070814,29.7692308 C59.6070814,46.2106154 46.2620676,59.5384615 29.8036331,59.5384615 C13.3438124,59.5384615 0.000184827586,46.2106154 0.000184827586,29.7692308 C0.000184827586,13.3283077 13.3438124,0 29.8036331,0 C46.2620676,0 59.6070814,13.3283077 59.6070814,29.7692308" id="Fill-1" fill="#1D4354" mask="url(#mask-2)"></path>
                                        </g>
                                        <path d="M45.7906186,24.6226615 C47.5908393,22.7908154 48.1443979,20.2020462 47.4637703,17.9022 C47.3801359,17.6266615 47.0372807,17.5320462 46.8358186,17.7378923 L44.7306324,19.8660462 C43.6711083,20.9455846 41.9328048,20.9635846 40.8511014,19.9025077 C39.7684738,18.8409692 39.7532255,17.1037385 40.8155221,16.0242 L42.9165497,13.8951231 C43.1193979,13.6902 43.0186669,13.3468154 42.7395772,13.2702 C40.4259979,12.6332769 37.846729,13.2318923 36.0478945,15.0628154 C34.0873359,17.0538923 33.6063221,19.9422 34.5817497,22.3800462 L34.5780531,22.3772769 L15.9169359,40.8955846 C15.8402324,40.9731231 15.7718462,41.0538923 15.7062324,41.1374308 L14.3241841,42.5192769 C14.1504462,42.6918923 14.1504462,42.9743538 14.3241841,43.1469692 L17.56606,46.3851231 C17.7393359,46.5577385 18.0225841,46.5577385 18.1953979,46.3851231 L21.4275703,43.1571231 L38.4959359,26.2205077 L38.4913152,26.2158923 C40.9485979,27.1477385 43.8309841,26.6151231 45.7906186,24.6226615" id="Fill-4" fill="#F2F2F2"></path>
                                        <path d="M43.2293703,38.5259538 C43.2293703,38.5259538 43.0838186,38.6718 42.90546,38.8499538 L37.7173497,44.0307231 C37.538991,44.2088769 37.3934393,44.3542615 37.3934393,44.3542615 L45.0573152,46.4976462 C45.2994393,46.5654923 45.4431428,46.4228769 45.3752186,46.1801077 L43.2293703,38.5259538 Z" id="Fill-6" fill="#E0E0E0"></path>
                                        <polygon id="Fill-8" fill="#6FDA44" points="13.976431 20.9633538 19.8123621 15.1341231 43.228631 38.5239692 37.3931621 44.3527385"></polygon>
                                        <polygon id="Fill-10" fill="#34BA08" points="16.8941655 18.0500308 19.811669 15.1358769 43.2288621 38.5257231 40.3113586 41.4403385"></polygon>
                                        <path d="M17.1833745,13.1575385 L11.9957262,18.3387692 C11.8173676,18.5169231 11.8173676,18.8086154 11.9957262,18.9863077 L13.9770779,20.9649231 L19.8116228,15.1352308 L17.8316572,13.1575385 C17.6542228,12.9798462 17.3617331,12.9789231 17.1833745,13.1575385" id="Fill-12" fill="#336278"></path>
                                    </g>
                                </g>
                            </g>
                        </g>
                    </g>
                </g>
            </g>
        </g>
    </g>
</svg>