<?xml version="1.0" encoding="UTF-8"?>
<svg width="61px" height="60px" viewBox="0 0 61 60" version="1.1" xmlns="http://www.w3.org/2000/svg" xmlns:xlink="http://www.w3.org/1999/xlink">
    <!-- Generator: Sketch 55 (78076) - https://sketchapp.com -->
    <title>time</title>
    <desc>Created with Sketch.</desc>
    <defs>
        <polygon id="path-1" points="0.00013862069 9.23076923e-05 59.6068966 9.23076923e-05 59.6068966 59.5384615 0.00013862069 59.5384615"></polygon>
        <polygon id="path-3" points="0 59.5384615 59.6068966 59.5384615 59.6068966 0 0 0"></polygon>
    </defs>
    <g id="Page-1" stroke="none" stroke-width="1" fill="none" fill-rule="evenodd">
        <g id="Email-1" transform="translate(-400.000000, -734.000000)">
            <g id="Card" transform="translate(200.000000, 30.000000)">
                <g id="Benefits" transform="translate(30.000000, 650.000000)">
                    <g id="Group" transform="translate(0.000000, 54.000000)">
                        <g id="2" transform="translate(138.000000, 0.000000)">
                            <g id="time" transform="translate(29.000000, 0.000000)">
                                <g id="Group-17" transform="translate(3.696552, 0.461538)">
                                    <g id="Group-3">
                                        <mask id="mask-2" fill="white">
                                            <use xlink:href="#path-1"></use>
                                        </mask>
                                        <g id="Clip-2"></g>
                                        <path d="M59.6070352,29.7693231 C59.6070352,46.2102462 46.2634076,59.5385538 29.8035869,59.5385538 C13.3433041,59.5385538 0.00013862069,46.2102462 0.00013862069,29.7693231 C0.00013862069,13.3279385 13.3433041,9.23076923e-05 29.8035869,9.23076923e-05 C46.2634076,9.23076923e-05 59.6070352,13.3279385 59.6070352,29.7693231" id="Fill-1" fill="#1D4354" mask="url(#mask-2)"></path>
                                    </g>
                                    <path d="M1.24194897,38.2744154 C4.90708,50.5688769 16.304011,59.5361077 29.8038179,59.5361077 C43.3027007,59.5361077 54.6996317,50.5688769 58.3652248,38.2744154 L1.24194897,38.2744154 Z" id="Fill-4" fill="#336278"></path>
                                    <path d="M15.0169179,22.2436154 L13.3349869,20.6351538 C13.1603248,20.4676154 13.1575524,20.1897692 13.3285179,20.019 L16.5865662,16.7646923 C16.7552214,16.5966923 17.0287662,16.5966923 17.1969593,16.7651538 L18.4898283,18.0560769 C18.6455455,18.2116154 18.6589455,18.459 18.521249,18.6306923 L15.6518007,22.2020769 C15.493311,22.3991538 15.1998972,22.4185385 15.0169179,22.2436154" id="Fill-6" fill="#B2B2B2"></path>
                                    <mask id="mask-4" fill="white">
                                        <use xlink:href="#path-3"></use>
                                    </mask>
                                    <g id="Clip-9"></g>
                                    <polygon id="Fill-8" fill="#E0E0E0" mask="url(#mask-4)" points="28.0993379 14.4955385 31.5080207 14.4955385 31.5080207 11.1572308 28.0993379 11.1572308"></polygon>
                                    <path d="M47.6148669,31.4789077 C47.6148669,41.3059846 39.6418669,49.2707538 29.8016462,49.2707538 C19.9665083,49.2707538 11.9921221,41.3059846 11.9921221,31.4789077 C11.9921221,21.6518308 19.9665083,13.6861385 29.8016462,13.6861385 C39.6418669,13.6861385 47.6148669,21.6518308 47.6148669,31.4789077" id="Fill-10" fill="#6FDA44" mask="url(#mask-4)"></path>
                                    <path d="M44.5793972,31.4786769 C44.5793972,39.6312923 37.9653421,46.2386769 29.8024317,46.2386769 C21.6427559,46.2386769 15.0273145,39.6312923 15.0273145,31.4786769 C15.0273145,23.3260615 21.6427559,16.7182154 29.8024317,16.7182154 C37.9653421,16.7182154 44.5793972,23.3260615 44.5793972,31.4786769" id="Fill-11" fill="#F9F9F9" mask="url(#mask-4)"></path>
                                    <polyline id="Stroke-12" stroke="#6FDA44" stroke-width="2" stroke-linecap="square" mask="url(#mask-4)" points="29.6420476 24.0582 29.6420476 31.5775846 22.9776269 31.5775846"></polyline>
                                    <path d="M32.9423752,11.7765231 L26.6647062,11.7765231 C26.4262786,11.7765231 26.2331338,11.5836 26.2331338,11.3454462 L26.2331338,9.77575385 C26.2331338,9.5376 26.4262786,9.34467692 26.6647062,9.34467692 L32.9423752,9.34467692 C33.1808028,9.34467692 33.3739476,9.5376 33.3739476,9.77575385 L33.3739476,11.3454462 C33.3739476,11.5836 33.1808028,11.7765231 32.9423752,11.7765231" id="Fill-13" fill="#F3756C" mask="url(#mask-4)"></path>
                                    <path d="M29.8035869,16.7182154 L29.8035869,18.2717538" id="Stroke-14" stroke="#6FDA44" stroke-width="2" stroke-linecap="square" mask="url(#mask-4)"></path>
                                    <path d="M29.8035869,44.9642308 L29.8035869,46.5177692" id="Stroke-15" stroke="#6FDA44" stroke-width="2" stroke-linecap="square" mask="url(#mask-4)"></path>
                                    <path d="M15.0123897,31.4784462 L16.5677138,31.4784462" id="Stroke-16" stroke="#6FDA44" stroke-width="2" stroke-linecap="square" mask="url(#mask-4)"></path>
                                </g>
                            </g>
                        </g>
                    </g>
                </g>
            </g>
        </g>
    </g>
</svg>